<?xml version="1.0" encoding="UTF-8"?>
<svg id="_Слой_1" data-name="Слой 1" xmlns="http://www.w3.org/2000/svg" viewBox="0 0 512 448">
  <defs>
    <style>
      .cls-1 {
        fill: #fff;
      }
    </style>
  </defs>
  <path class="cls-1" d="M377.9,73.9l122.8,122.8c7.2,7.2,11.3,17.1,11.3,27.3s-4.1,20.1-11.3,27.3l-122.8,122.8c-6.4,6.4-15,9.9-24,9.9-18.7,0-33.9-15.2-33.9-33.9v-62.1H192c-17.7,0-32-14.3-32-32v-64c0-17.7,14.3-32,32-32h128v-62.1c0-18.7,15.2-33.9,33.9-33.9,9,0,17.6,3.6,24,9.9Zm-217.9-9.9H96c-17.7,0-32,14.3-32,32V352c0,17.7,14.3,32,32,32h64c17.7,0,32,14.3,32,32s-14.3,32-32,32H96C43,448,0,405,0,352V96C0,43,43,0,96,0h64c17.7,0,32,14.3,32,32s-14.3,32-32,32Z"/>
</svg>